0
SECTION
2
HEADER
9
$INSUNITS
70
4
9
$ACADVER
1
AC1014
9
$HANDSEED
5
FFFF
0
ENDSEC
0
SECTION
2
TABLES
0
TABLE
2
VPORT
5
8
100
AcDbSymbolTable
0
ENDTAB
0
TABLE
2
LTYPE
5
5
100
AcDbSymbolTable
0
LTYPE
5
14
100
AcDbSymbolTableRecord
100
AcDbLinetypeTableRecord
2
BYBLOCK
70
0
0
LTYPE
5
15
100
AcDbSymbolTableRecord
100
AcDbLinetypeTableRecord
2
BYLAYER
70
0
0
LTYPE
5
16
100
AcDbSymbolTableRecord
100
AcDbLinetypeTableRecord
2
DASHED
70
0
3
Dashed __ __ __ __ __ __ __ __ __ __ __ __ __ _
72
65
73
2
40
0.75
49
0.5
74
0
49
-0.25
74
0
0
ENDTAB
0
TABLE
2
LAYER
5
2
100
AcDbSymbolTable
70
2
0
LAYER
5
50
100
AcDbSymbolTableRecord
100
AcDbLayerTableRecord
2
0
70
0
62
7
6
CONTINUOUS
0
ENDTAB
0
TABLE
2
STYLE
5
3
100
AcDbSymbolTable
70
1
0
STYLE
5
11
100
AcDbSymbolTableRecord
100
AcDbTextStyleTableRecord
2
STANDARD
70
0
0
ENDTAB
0
TABLE
2
VIEW
5
6
100
AcDbSymbolTable
70
0
0
ENDTAB
0
TABLE
2
UCS
5
7
100
AcDbSymbolTable
70
0
0
ENDTAB
0
TABLE
2
APPID
5
9
100
AcDbSymbolTable
70
2
0
APPID
5
12
100
AcDbSymbolTableRecord
100
AcDbRegAppTableRecord
2
ACAD
70
0
0
ENDTAB
0
TABLE
2
DIMSTYLE
5
A
100
AcDbSymbolTable
70
1
0
ENDTAB
0
TABLE
2
BLOCK_RECORD
5
1
100
AcDbSymbolTable
70
1
0
BLOCK_RECORD
5
1F
100
AcDbSymbolTableRecord
100
AcDbBlockTableRecord
2
*MODEL_SPACE
0
BLOCK_RECORD
5
1B
100
AcDbSymbolTableRecord
100
AcDbBlockTableRecord
2
*PAPER_SPACE
0
ENDTAB
0
ENDSEC
0
SECTION
2
BLOCKS
0
BLOCK
5
20
100
AcDbEntity
100
AcDbBlockBegin
2
*MODEL_SPACE
0
ENDBLK
5
21
100
AcDbEntity
100
AcDbBlockEnd
0
BLOCK
5
1C
100
AcDbEntity
100
AcDbBlockBegin
2
*PAPER_SPACE
0
ENDBLK
5
1D
100
AcDbEntity
100
AcDbBlockEnd
0
ENDSEC
0
SECTION
2
ENTITIES
0
CIRCLE
5
100
100
AcDbEntity
8
0
100
AcDbCircle
10
258.29627965644033
20
-78.734103253695267
30
2.9976021664879227e-14
40
1.5000000000000036
210
-4.8095870573663665e-33
220
4.163336342344337e-16
230
1
0
CIRCLE
5
101
100
AcDbEntity
8
0
100
AcDbCircle
10
258.29627965644033
20
3.4158967463046874
30
0
40
1.5000000000000036
210
-4.8095870573663665e-33
220
4.163336342344337e-16
230
1
0
CIRCLE
5
102
100
AcDbEntity
8
0
100
AcDbCircle
10
84.60361298977368
20
3.4158967463046515
30
-1.1102230246251565e-15
40
1.5000000000000036
210
-4.8095870573663665e-33
220
4.163336342344337e-16
230
1
0
LWPOLYLINE
5
103
100
AcDbEntity
8
0
100
AcDbPolyline
90
64
70
1
43
0.0
10
80.60361298977368
20
-0.33410325369534949
10
12.403679656440332
20
-0.33410325369535965
42
-0.41421356237309587
10
10.903679656440328
20
1.1658967463046395
10
10.903679656440328
20
3.4158967463046359
42
0.99999999999999989
10
5.90367965644033
20
3.4158967463046364
10
5.903679656440338
20
1.1658967463046386
42
-0.41421356237309509
10
4.4036796564403389
20
-0.33410325369536253
10
4.2750000000000155
20
-0.33410325369536475
42
0.41421356237309531
10
1.275000000000015
20
-3.3341032536953636
10
1.2750000000000221
20
-71.984103253695338
42
0.41421356237309503
10
4.2750000000000306
20
-74.984103253695324
10
4.4036796564403611
20
-74.984103253695324
42
-0.41421356237309503
10
5.903679656440362
20
-76.484103253695324
10
5.9036796564403602
20
-78.734103253695324
42
0.99999999999999989
10
10.90367965644036
20
-78.734103253695295
10
10.903679656440353
20
-76.484103253695324
42
-0.41421356237309592
10
12.40367965644036
20
-74.984103253695324
10
80.603612989773708
20
-74.984103253695309
42
-0.41421356237309503
10
82.103612989773723
20
-76.484103253695309
10
82.103612989773723
20
-78.734103253695295
42
0.99999999999999989
10
87.103612989773723
20
-78.734103253695309
10
87.103612989773723
20
-76.484103253695309
42
-0.41421356237309503
10
88.603612989773723
20
-74.984103253695309
10
178.09634632310704
20
-74.984103253695309
42
-0.41421356237309503
10
179.59634632310701
20
-76.484103253695295
10
179.59634632310701
20
-78.734103253695295
42
0.99999999999999989
10
184.59634632310701
20
-78.734103253695281
10
184.59634632310701
20
-76.484103253695281
42
-0.41421356237309503
10
186.09634632310701
20
-74.984103253695281
10
254.29627965644039
20
-74.984103253695281
42
-0.41421356237309503
10
255.79627965644036
20
-76.484103253695267
10
255.79627965644036
20
-78.734103253695267
42
0.99999999999999989
10
260.79627965644033
20
-78.734103253695267
10
260.79627965644033
20
-76.484103253695267
42
-0.41421356237309503
10
262.29627965644033
20
-74.984103253695267
10
262.42500000000007
20
-74.984103253695267
42
0.41421356237308898
10
265.42500000000007
20
-71.984103253695281
10
265.42500000000007
20
-3.3341032536953019
42
0.41421356237309365
10
262.42500000000001
20
-0.33410325369530869
10
262.29627965644033
20
-0.33410325369529525
42
-0.41421356237309503
10
260.79627965644033
20
1.1658967463046905
10
260.79627965644033
20
3.4158967463046879
42
0.99999999999999989
10
255.79627965644036
20
3.4158967463046874
10
255.79627965644036
20
1.1658967463046896
42
-0.41421356237309515
10
254.29627965644039
20
-0.33410325369531135
10
186.09634632310701
20
-0.33410325369531102
42
-0.41421356237309503
10
184.59634632310701
20
1.1658967463046748
10
184.59634632310701
20
3.4158967463046692
42
0.99999999999999989
10
179.59634632310701
20
3.4158967463046697
10
179.59634632310701
20
1.1658967463046743
42
-0.4142135623730952
10
178.09634632310704
20
-0.33410325369532701
10
138.9318420311773
20
-0.33410325369533478
42
-0.41421350246107469
10
138.4318420311773
20
0.16589664402844678
10
138.43184100000002
20
5.2070357463046655
42
0.41421356241108764
10
137.4318409998703
20
6.2070557463046665
10
129.271861
20
6.2070557463046638
42
0.41421356235536561
10
128.27184100000002
20
5.2070557463651701
10
128.27184090646713
20
0.16589643947713786
42
-0.41421338263770358
10
127.77184090646725
20
-0.33410325369533705
10
88.60361298977368
20
-0.33410325369534855
42
-0.41421356237309503
10
87.10361298977368
20
1.165896746304655
10
87.10361298977368
20
3.415896746304651
42
0.99999999999999989
10
82.10361298977368
20
3.4158967463046523
10
82.10361298977368
20
1.1658967463046548
42
-0.41421356237309531
0
CIRCLE
5
104
100
AcDbEntity
8
0
100
AcDbCircle
10
8.4036796564403602
20
-78.734103253695309
30
2.997602166487922e-14
40
1.5000000000000036
210
-4.8095870573663665e-33
220
4.163336342344337e-16
230
1
0
CIRCLE
5
105
100
AcDbEntity
8
0
100
AcDbCircle
10
182.09634632310701
20
-78.734103253695281
30
2.9976021664879227e-14
40
1.5000000000000036
210
-4.8095870573663665e-33
220
4.163336342344337e-16
230
1
0
CIRCLE
5
106
100
AcDbEntity
8
0
100
AcDbCircle
10
182.09634632310701
20
3.4158967463046697
30
-1.1102230246251565e-15
40
1.5000000000000036
210
-4.8095870573663665e-33
220
4.163336342344337e-16
230
1
0
CIRCLE
5
107
100
AcDbEntity
8
0
100
AcDbCircle
10
8.40367965644033
20
3.4158967463046364
30
-1.1102230246251567e-15
40
1.5000000000000036
210
-4.8095870573663665e-33
220
4.163336342344337e-16
230
1
0
CIRCLE
5
108
100
AcDbEntity
8
0
100
AcDbCircle
10
84.603612989773723
20
-78.734103253695309
30
2.9976021664879233e-14
40
1.5000000000000036
210
-4.8095870573663665e-33
220
4.163336342344337e-16
230
1
0
LWPOLYLINE
5
109
100
AcDbEntity
8
0
100
AcDbPolyline
90
4
70
1
43
0.0
10
137.97184099999998
20
1.4770597463046649
42
0.99999999999999989
10
137.37184100000002
20
1.4770597463046649
10
137.37184100000002
20
0.37705974630466493
42
0.99999999999999989
10
137.97184100000001
20
0.37705974630466477
0
CIRCLE
5
110
100
AcDbEntity
8
0
100
AcDbCircle
10
136.24184100000002
20
1.4570597463046648
30
0
40
0.32500000000000001
210
-1.9786446325705462e-33
220
4.0245584642661925e-16
230
1
0
LWPOLYLINE
5
111
100
AcDbEntity
8
0
100
AcDbPolyline
90
4
70
1
43
0.0
10
137.97184099999998
20
5.4070597463046646
42
0.99999999999999989
10
137.37184100000002
20
5.4070597463046646
10
137.37184100000002
20
4.8070597463046649
42
0.99999999999999989
10
137.97184100000001
20
4.8070597463046649
0
LWPOLYLINE
5
112
100
AcDbEntity
8
0
100
AcDbPolyline
90
4
70
1
43
0.0
10
129.331841
20
1.4770597463046631
42
0.99999999999999989
10
128.731841
20
1.4770597463046631
10
128.731841
20
0.37705974630466327
42
0.99999999999999989
10
129.33184100000003
20
0.3770597463046631
0
CIRCLE
5
113
100
AcDbEntity
8
0
100
AcDbCircle
10
130.46184100000002
20
1.4570597463046635
30
-1.1102230246251565e-15
40
0.32500000000000001
210
-1.9786446325705462e-33
220
4.0245584642661925e-16
230
1
0
LWPOLYLINE
5
114
100
AcDbEntity
8
0
100
AcDbPolyline
90
4
70
1
43
0.0
10
129.331841
20
5.4070597463046628
42
0.99999999999999989
10
128.731841
20
5.4070597463046628
10
128.731841
20
4.807059746304664
42
0.99999999999999989
10
129.33184100000003
20
4.807059746304664
0
ENDSEC
0
SECTION
2
OBJECTS
0
DICTIONARY
5
C
100
AcDbDictionary
3
ACAD_GROUP
350
D
3
ACAD_MLINESTYLE
350
17
0
DICTIONARY
5
D
100
AcDbDictionary
0
DICTIONARY
5
1A
330
C
100
AcDbDictionary
0
DICTIONARY
5
17
100
AcDbDictionary
0
ENDSEC
0
EOF
